<svg width="17" height="17" viewBox="0 0 17 17" fill="none" xmlns="http://www.w3.org/2000/svg">
<path d="M8.95053 2.15942C5.27053 2.15942 2.29053 5.14609 2.29053 8.82609C2.29053 12.5061 5.27053 15.4928 8.95053 15.4928C12.6372 15.4928 15.6239 12.5061 15.6239 8.82609C15.6239 5.14609 12.6372 2.15942 8.95053 2.15942ZM13.5705 6.15942H11.6039C11.3905 5.32609 11.0839 4.52609 10.6839 3.78609C11.9105 4.20609 12.9305 5.05942 13.5705 6.15942ZM8.95719 3.51942C9.51053 4.31942 9.94386 5.20609 10.2305 6.15942H7.68386C7.97053 5.20609 8.40386 4.31942 8.95719 3.51942ZM3.79719 10.1594C3.69053 9.73276 3.62386 9.28609 3.62386 8.82609C3.62386 8.36609 3.69053 7.91942 3.79719 7.49276H6.05053C5.99719 7.93276 5.95719 8.37276 5.95719 8.82609C5.95719 9.27942 5.99719 9.71942 6.05053 10.1594H3.79719ZM4.34386 11.4928H6.31053C6.52386 12.3261 6.83053 13.1261 7.23053 13.8661C6.00386 13.4461 4.98386 12.5994 4.34386 11.4928ZM6.31053 6.15942H4.34386C4.98386 5.05276 6.00386 4.20609 7.23053 3.78609C6.83053 4.52609 6.52386 5.32609 6.31053 6.15942ZM8.95719 14.1328C8.40386 13.3328 7.97053 12.4461 7.68386 11.4928H10.2305C9.94386 12.4461 9.51053 13.3328 8.95719 14.1328ZM10.5172 10.1594H7.39719C7.33719 9.71942 7.29053 9.27942 7.29053 8.82609C7.29053 8.37276 7.33719 7.92609 7.39719 7.49276H10.5172C10.5772 7.92609 10.6239 8.37276 10.6239 8.82609C10.6239 9.27942 10.5772 9.71942 10.5172 10.1594ZM10.6839 13.8661C11.0839 13.1261 11.3905 12.3261 11.6039 11.4928H13.5705C12.9305 12.5928 11.9105 13.4461 10.6839 13.8661ZM11.8639 10.1594C11.9172 9.71942 11.9572 9.27942 11.9572 8.82609C11.9572 8.37276 11.9172 7.93276 11.8639 7.49276H14.1172C14.2239 7.91942 14.2905 8.36609 14.2905 8.82609C14.2905 9.28609 14.2239 9.73276 14.1172 10.1594H11.8639Z" fill="#FF1F00"/>
</svg>
