<svg width="100" height="100" viewBox="0 0 100 100" fill="none" xmlns="http://www.w3.org/2000/svg">
<g clip-path="url(#clip0_523_43)">
<path d="M73.3872 64.6499C79.4391 56.3917 82.1497 46.153 80.9767 35.9821C79.8036 25.8112 74.8336 16.4583 67.0608 9.79446C59.288 3.13065 49.2857 -0.352582 39.055 0.0416251C28.8243 0.435832 19.1197 4.67841 11.8827 11.9206C4.6457 19.1627 0.410068 28.8704 0.0231815 39.1014C-0.363705 49.3323 3.12669 59.3321 9.79605 67.1002C16.4654 74.8682 25.8219 79.8316 35.9936 80.9973C46.1653 82.163 56.4021 79.4451 64.656 73.3874H64.6497C64.8372 73.6374 65.0373 73.8749 65.2623 74.1061L89.3247 98.1686C90.4967 99.3414 92.0865 100.001 93.7444 100.001C95.4024 100.002 96.9926 99.3437 98.1654 98.1718C99.3381 96.9998 99.9973 95.41 99.9979 93.7521C99.9985 92.0942 99.3404 90.5039 98.1685 89.3311L74.106 65.2686C73.8825 65.0425 73.6423 64.8398 73.3872 64.6499ZM74.9997 40.6249C74.9997 45.1391 74.1106 49.6091 72.3831 53.7796C70.6556 57.9502 68.1236 61.7397 64.9315 64.9317C61.7395 68.1237 57.9501 70.6557 53.7795 72.3833C49.6089 74.1108 45.1389 74.9999 40.6248 74.9999C36.1106 74.9999 31.6406 74.1108 27.47 72.3833C23.2994 70.6557 19.51 68.1237 16.318 64.9317C13.1259 61.7397 10.5939 57.9502 8.86639 53.7796C7.13889 49.6091 6.24975 45.1391 6.24975 40.6249C6.24975 31.5081 9.87139 22.7647 16.318 16.3181C22.7645 9.87154 31.5079 6.2499 40.6248 6.2499C49.7416 6.2499 58.485 9.87154 64.9315 16.3181C71.3781 22.7647 74.9997 31.5081 74.9997 40.6249Z" fill="black"/>
</g>
<defs>
<clipPath id="clip0_523_43">
<rect width="100" height="100" fill="white"/>
</clipPath>
</defs>
</svg>
