<svg width="100" height="100" viewBox="0 0 100 100" fill="none" xmlns="http://www.w3.org/2000/svg">
<g clip-path="url(#clip0_828_5)">
<path d="M58.0813 0H25C21.6848 0 18.5054 1.31696 16.1612 3.66117C13.817 6.00537 12.5 9.18479 12.5 12.5V87.5C12.5 90.8152 13.817 93.9946 16.1612 96.3388C18.5054 98.683 21.6848 100 25 100H75C78.3152 100 81.4946 98.683 83.8388 96.3388C86.183 93.9946 87.5 90.8152 87.5 87.5V29.4187C87.4996 27.7613 86.8409 26.1718 85.6687 25L62.5 1.83125C61.3282 0.659067 59.7387 0.000353984 58.0813 0ZM59.375 21.875V9.375L78.125 28.125H65.625C63.9674 28.125 62.3777 27.4665 61.2056 26.2944C60.0335 25.1223 59.375 23.5326 59.375 21.875ZM28.125 56.25C27.2962 56.25 26.5013 55.9208 25.9153 55.3347C25.3292 54.7487 25 53.9538 25 53.125C25 52.2962 25.3292 51.5013 25.9153 50.9153C26.5013 50.3292 27.2962 50 28.125 50H71.875C72.7038 50 73.4987 50.3292 74.0847 50.9153C74.6708 51.5013 75 52.2962 75 53.125C75 53.9538 74.6708 54.7487 74.0847 55.3347C73.4987 55.9208 72.7038 56.25 71.875 56.25H28.125ZM25 65.625C25 64.7962 25.3292 64.0013 25.9153 63.4153C26.5013 62.8292 27.2962 62.5 28.125 62.5H71.875C72.7038 62.5 73.4987 62.8292 74.0847 63.4153C74.6708 64.0013 75 64.7962 75 65.625C75 66.4538 74.6708 67.2487 74.0847 67.8347C73.4987 68.4208 72.7038 68.75 71.875 68.75H28.125C27.2962 68.75 26.5013 68.4208 25.9153 67.8347C25.3292 67.2487 25 66.4538 25 65.625ZM28.125 81.25C27.2962 81.25 26.5013 80.9208 25.9153 80.3347C25.3292 79.7487 25 78.9538 25 78.125C25 77.2962 25.3292 76.5013 25.9153 75.9153C26.5013 75.3292 27.2962 75 28.125 75H53.125C53.9538 75 54.7487 75.3292 55.3347 75.9153C55.9208 76.5013 56.25 77.2962 56.25 78.125C56.25 78.9538 55.9208 79.7487 55.3347 80.3347C54.7487 80.9208 53.9538 81.25 53.125 81.25H28.125Z" fill="#FF6B00"/>
</g>
<defs>
<clipPath id="clip0_828_5">
<rect width="100" height="100" fill="white"/>
</clipPath>
</defs>
</svg>
